<?xml version="1.0" standalone="no"?>
<!DOCTYPE svg PUBLIC "-//W3C//DTD SVG 20010904//EN"
 "http://www.w3.org/TR/2001/REC-SVG-20010904/DTD/svg10.dtd">
<svg version="1.0" xmlns="http://www.w3.org/2000/svg"
 width="218.000000pt" height="218.000000pt" viewBox="0 0 218.000000 218.000000"
 preserveAspectRatio="xMidYMid meet">
<metadata>
Created by potrace 1.11, written by Peter Selinger 2001-2013
</metadata>
<g transform="translate(0.000000,218.000000) scale(0.100000,-0.100000)"
fill="#000000" stroke="none">
<path d="M1085 2140 c3 -5 2 -10 -3 -10 -5 0 -29 -30 -53 -67 -23 -38 -46 -70
-49 -73 -11 -8 -34 -54 -32 -62 1 -5 -2 -8 -7 -8 -9 0 -189 -285 -286 -455
-70 -121 -175 -333 -175 -351 0 -8 -4 -14 -9 -14 -5 0 -11 -10 -14 -22 -3 -13
-19 -60 -36 -106 -17 -46 -33 -98 -35 -115 -2 -18 -9 -54 -15 -80 -7 -27 -9
-65 -5 -85 12 -68 14 -77 21 -112 8 -41 7 -37 17 -72 5 -16 11 -28 15 -28 4 0
8 -6 8 -14 0 -41 127 -231 146 -219 6 3 7 2 4 -4 -7 -11 17 -34 105 -98 33
-25 64 -42 69 -39 5 3 9 1 9 -4 0 -18 137 -67 219 -79 96 -14 228 -6 301 18
74 24 160 62 160 72 0 6 3 8 6 4 19 -19 183 129 244 220 77 114 106 203 116
354 9 121 -23 248 -107 437 -17 37 -30 69 -29 71 1 2 -2 7 -7 10 -4 3 -18 29
-31 56 -20 43 -144 270 -172 315 -5 8 -39 65 -76 125 -106 175 -285 445 -296
445 -5 0 -6 -4 -3 -10z m35 -228 c14 -20 29 -41 33 -47 4 -5 42 -66 85 -135
42 -69 80 -126 84 -128 5 -2 8 -10 8 -18 0 -8 5 -14 10 -14 6 0 9 -3 8 -7 -3
-9 14 -40 51 -98 14 -22 26 -42 26 -45 0 -3 6 -15 13 -27 16 -29 12 -29 -74 6
-160 65 -331 72 -493 20 -20 -6 -42 -16 -48 -22 -7 -5 -13 -7 -13 -3 0 4 -18
-3 -41 -14 l-41 -21 7 23 c4 13 11 25 14 28 11 8 72 120 65 120 -3 0 1 7 10
15 8 8 29 41 47 72 18 32 41 69 51 82 10 13 15 28 11 34 -3 6 -1 7 5 3 11 -6
13 -2 12 19 -1 3 7 13 16 22 8 9 27 35 41 57 15 23 37 58 50 79 13 20 27 37
31 37 4 0 18 -17 32 -38z m50 -575 c76 -10 138 -30 198 -62 34 -19 62 -32 62
-28 0 4 6 0 13 -9 6 -8 38 -39 70 -67 31 -28 55 -51 52 -51 -6 0 6 -16 38 -51
9 -10 17 -20 16 -21 -2 -8 16 -46 30 -62 9 -10 15 -21 15 -25 -2 -6 2 -20 12
-48 14 -38 16 -62 16 -173 1 -105 -2 -123 -32 -205 -38 -106 -54 -133 -66
-113 -5 7 -9 18 -10 23 -1 6 -8 24 -15 40 -6 17 -13 36 -15 44 -1 8 -8 17 -14
21 -7 4 -11 10 -10 14 2 15 -34 64 -44 59 -6 -3 -8 -2 -3 2 10 12 -23 46 -37
38 -6 -3 -8 -3 -4 2 10 11 -27 37 -98 68 -53 23 -302 89 -322 85 -4 -1 -20 4
-37 11 -16 7 -40 14 -52 14 -11 1 -19 5 -16 10 2 4 -2 7 -10 7 -8 0 -30 11
-50 24 -19 13 -38 22 -41 18 -3 -3 -6 2 -6 10 0 9 -6 18 -14 21 -22 9 -56 89
-60 142 -11 150 88 243 280 264 67 7 82 7 154 -2z m-569 -342 c12 -36 27 -65
33 -65 5 0 6 -3 3 -6 -14 -14 89 -138 106 -127 6 3 7 2 4 -4 -16 -26 182 -102
333 -128 70 -12 153 -37 208 -62 55 -25 123 -84 131 -113 2 -8 9 -33 16 -55
14 -47 12 -108 -6 -150 -7 -16 -11 -34 -10 -40 2 -5 0 -7 -4 -4 -9 9 -62 -44
-56 -56 2 -5 1 -7 -4 -3 -4 4 -24 -1 -44 -11 -69 -36 -230 -55 -311 -37 -8 1
-33 6 -55 10 -64 12 -216 92 -264 138 -25 24 -41 36 -36 28 4 -8 5 -12 1 -8
-4 3 -8 10 -8 15 0 4 -13 24 -28 43 -15 19 -35 50 -44 68 -9 17 -21 32 -27 32
-6 0 -7 4 -4 10 3 5 -2 24 -11 41 -42 82 -40 306 5 429 5 14 17 46 27 73 9 26
18 47 19 47 2 0 13 -29 26 -65z"/>
</g>
</svg>
